# xmcd
# 
# Track frame offsets:
#     150
#     21010
#     41010
#     61939
#     85797
#     115695
#     132215
#     149107
#     168977
#     189777
#     211455
#     233745
#     256982
#     278560
# 
# Disc length: 3965
# 
# Revision: 2
# Processed by: cddbd v1.5.2PL0 Copyright (c) Steve Scherf et al.
# Submitted via: fre:ac v1.0.17
# 
DISCID=bc0f7b0e
DTITLE=Various Artist - 명작 4
DYEAR=1998
DGENRE=Other
TTITLE0=부활/사랑할수록
TTITLE1=이소라/기억해줘
TTITLE2=김현철/끝난건가요
TTITLE3=조관우/님은 먼곳에
TTITLE4=이문세/그녀의 웃음소리뿐
TTITLE5=이은하/미소를 띄우며 나를 보낸 그 모습처럼
TTITLE6=김광석/사랑이라는 이유로
TTITLE7=김현식/내사랑 내곁에
TTITLE8=이기찬/Please
TTITLE9=여행스케치/옛친구에게
TTITLE10=푸른하늘/사랑 그대로의 사랑
TTITLE11=박학기/향기로운 추억
TTITLE12=장필순/어느새
TTITLE13=낯선 사람들/낯선 사람들
EXTD=
EXTT0=
EXTT1=
EXTT2=
EXTT3=
EXTT4=
EXTT5=
EXTT6=
EXTT7=
EXTT8=
EXTT9=
EXTT10=
EXTT11=
EXTT12=
EXTT13=
PLAYORDER=
